<svg preserveAspectRatio="none" width="100%" height="100%" overflow="visible" style="display: block;" viewBox="0 0 21 21" fill="none" xmlns="http://www.w3.org/2000/svg">
<path id="Card Icon" d="M4.02941 0.500001H0.5M13.9118 3.16667V11.1667M17.4412 7.16667H10.3824M4.31176 0.5L6.85294 10.9533C7.06504 11.7777 7.50558 12.5028 8.1094 13.0214C8.71322 13.5401 9.44828 13.8247 10.2059 13.8333H20.4882V0.5H4.31176ZM12.2647 18.5C12.2647 19.6046 11.4746 20.5 10.5 20.5C9.52538 20.5 8.7353 19.6046 8.7353 18.5C8.7353 17.3954 9.52538 16.5 10.5 16.5C11.4746 16.5 12.2647 17.3954 12.2647 18.5ZM20.5 18.5C20.5 19.6046 19.7099 20.5 18.7353 20.5C17.7607 20.5 16.9706 19.6046 16.9706 18.5C16.9706 17.3954 17.7607 16.5 18.7353 16.5C19.7099 16.5 20.5 17.3954 20.5 18.5Z" stroke="var(--stroke-0, #1C1C1E)" stroke-linecap="round" stroke-linejoin="round"/>
</svg>
